<?xml version="1.0" encoding="utf-8"?>
<!-- Generator: Adobe Illustrator 18.0.0, SVG Export Plug-In . SVG Version: 6.00 Build 0)  -->
<!DOCTYPE svg PUBLIC "-//W3C//DTD SVG 1.1//EN" "http://www.w3.org/Graphics/SVG/1.1/DTD/svg11.dtd">
<svg version="1.1" id="Layer_1" xmlns="http://www.w3.org/2000/svg" xmlns:xlink="http://www.w3.org/1999/xlink" x="0px" y="0px"
	 viewBox="0 0 800 584" enable-background="new 0 0 800 584" xml:space="preserve">
<path d="M552.7,83.9c-4,1.3-8.1,2.5-12.2,3.8c-23.5,7.4-47.8,15-72.4,22.8c-38.8,12.2-78.4,24.8-117.3,37.1
	c-176.6,56-338.2,108.1-340.5,109.1c126.8-16.1,239.1-27.2,328.5-35.3c23.4-2.1,45.4-4.1,65.8-5.8l-55.3,359.9l132.9-58.7
	l19.5-115.5L789.4,12.2l0.2-0.2l0,0C756.5,20.7,663.5,49.2,552.7,83.9 M533.6,206.9l0.5-3.5h0L533.6,206.9z"/>
</svg>
