<?xml version="1.0" encoding="utf-8"?>
<!-- Generator: Adobe Illustrator 18.0.0, SVG Export Plug-In . SVG Version: 6.00 Build 0)  -->
<!DOCTYPE svg PUBLIC "-//W3C//DTD SVG 1.1//EN" "http://www.w3.org/Graphics/SVG/1.1/DTD/svg11.dtd">
<svg version="1.1" id="Layer_1" xmlns="http://www.w3.org/2000/svg" xmlns:xlink="http://www.w3.org/1999/xlink" x="0px" y="0px"
	 viewBox="0 0 800 147" enable-background="new 0 0 800 147" xml:space="preserve">
<g>
	<polygon points="54.7,37.4 15.4,37.4 15.4,26.9 104.6,26.9 104.6,37.4 65.2,37.4 65.2,123.4 54.7,123.4 	"/>
	<path d="M129.4,107.7c1.7,1.6,3.6,2.8,5.7,3.7c2.1,0.9,4.5,1.4,6.9,1.4h36.8v10.5H142c-4.1,0-7.9-0.8-11.4-2.3
		c-3.6-1.5-6.7-3.6-9.3-6.3c-2.6-2.7-4.7-5.8-6.3-9.4c-1.5-3.6-2.3-7.3-2.3-11.3v-19c0-4.1,0.8-7.9,2.3-11.4
		c1.5-3.6,3.6-6.7,6.3-9.4c2.6-2.7,5.7-4.8,9.3-6.4c3.6-1.6,7.4-2.4,11.4-2.4h19.2c4.5,0,8.3,1,11.2,3c2.9,2,4.8,4.5,5.6,7.6
		c0.9,3,0.7,6.2-0.5,9.7c-1.2,3.4-3.6,6.6-7.1,9.4L129.4,107.7z M123.3,93.3c0,0.9,0.1,1.8,0.2,2.6c0.2,0.8,0.4,1.5,0.7,2.1L164,67
		c1.5-1.2,2.6-2.4,3.2-3.7c0.7-1.3,0.9-2.5,0.7-3.5c-0.2-1.1-0.8-2-1.9-2.7c-1.1-0.7-2.6-1.1-4.7-1.1H142c-2.6,0-5.1,0.5-7.4,1.5
		c-2.3,1-4.2,2.3-5.9,4c-1.7,1.7-3,3.7-4,6c-1,2.3-1.5,4.8-1.5,7.4V93.3z"/>
	<path d="M198.6,63.3c1.6-3.6,3.7-6.7,6.4-9.3c2.7-2.6,5.8-4.7,9.5-6.3c3.6-1.5,7.5-2.3,11.7-2.3h34.5V56h-34.5
		c-2.7,0-5.3,0.5-7.6,1.5c-2.4,1-4.4,2.3-6.1,4c-1.7,1.7-3.1,3.7-4.1,5.9c-1,2.2-1.5,4.6-1.5,7.2v28.5c0,2.7,1,4.9,3,6.8
		c2,1.9,4.4,2.9,7.3,2.9h43.5v10.5H217c-2.9,0-5.6-0.5-8.2-1.6c-2.6-1.1-4.8-2.5-6.6-4.3c-1.9-1.8-3.3-4-4.4-6.4
		c-1.1-2.5-1.6-5.1-1.6-7.8V74.7C196.2,70.7,197,66.9,198.6,63.3"/>
	<path d="M327.7,47.6c3.5,1.4,6.5,3.2,9,5.6c2.6,2.4,4.6,5.1,6.1,8.4c1.5,3.2,2.2,6.7,2.2,10.3v29.9h-10.5V71.9
		c0-2.1-0.5-4.2-1.4-6.1c-1-1.9-2.2-3.6-3.8-5c-1.6-1.4-3.5-2.6-5.6-3.4c-2.2-0.8-4.5-1.2-6.9-1.2H290v67.2h-10.5V26.9H290v18.7
		h26.6C320.5,45.6,324.2,46.3,327.7,47.6"/>
	<path d="M408,79.5c3.9,2,6.9,4.4,9.1,7.4c2.2,2.9,3.6,6,4.2,9.2c0.6,3.2,0.5,6.5-0.3,9.7c-0.8,3.3-2.3,6.2-4.5,8.8
		c-2.2,2.6-5,4.7-8.4,6.3c-3.4,1.6-7.4,2.4-12,2.4l-61.6,0.1v-10.5l61.6-0.1c3.8,0,7-0.9,9.5-2.7c2.6-1.8,4.3-3.9,5.1-6.4
		c0.8-2.5,0.6-5.1-0.6-7.9c-1.2-2.7-3.6-5-7.3-6.9L364,68.8c-3.7-1.9-6.7-4.3-8.8-7.1c-2.2-2.8-3.6-5.8-4.2-8.9
		c-0.7-3.1-0.6-6.2,0.1-9.3c0.7-3.1,2.2-5.8,4.3-8.3c2.1-2.5,4.9-4.5,8.2-6c3.4-1.5,7.4-2.3,11.9-2.3h41.2v10.5h-41.2
		c-3.9,0-7,0.8-9.5,2.5c-2.4,1.7-4,3.6-4.7,6c-0.7,2.3-0.4,4.7,0.8,7.3c1.2,2.5,3.5,4.7,6.8,6.4L408,79.5z"/>
	<path d="M451.4,108c2.7,3.2,7.7,4.8,14.9,4.8h19.8v10.5h-19.8c-10.3,0-17.9-2.6-22.8-7.8c-4.8-5.2-7.3-13.4-7.3-24.7V56.1h-8.2
		V45.6h8.2V26.9h10.5v18.7H506v10.5h-59.1v34.7C446.8,99,448.4,104.7,451.4,108"/>
	<path d="M565,45.6h10.5v55.1c0,3.1-0.6,6.1-1.7,8.9c-1.2,2.8-2.8,5.2-4.8,7.2c-2.1,2-4.5,3.6-7.2,4.8c-2.7,1.2-5.7,1.8-8.9,1.8
		h-16.1c-4.5,0-8.8-0.9-12.8-2.6c-4-1.7-7.5-4.1-10.5-7.1c-3-3-5.3-6.5-7-10.5c-1.7-4-2.5-8.3-2.5-12.8V45.6h10.5v44.8
		c0,3.1,0.6,6,1.7,8.7c1.2,2.7,2.7,5.1,4.8,7.1c2,2,4.4,3.6,7.1,4.8c2.7,1.2,5.6,1.8,8.7,1.8H553c3.5,0,6.3-1.2,8.6-3.5
		c2.3-2.4,3.4-5.2,3.4-8.6V45.6z"/>
	<path d="M643.4,26.9h10.5v96.5h-40.1c-7.8,0-14-2.1-18.6-6.4c-4.6-4.3-6.9-10.1-6.9-17.4V71.9c0-3.6,0.7-7.1,2.2-10.3
		c1.5-3.2,3.5-6,6.1-8.4c2.6-2.4,5.7-4.2,9.2-5.6c3.5-1.4,7.3-2,11.2-2h26.3V26.9z M643.4,56.1h-26.3c-2.5,0-4.8,0.4-7,1.2
		c-2.2,0.8-4.1,2-5.8,3.4c-1.7,1.4-3,3.1-4,5c-1,1.9-1.4,3.9-1.4,6.1v27.7c0,4.2,1.3,7.5,4,9.8c2.6,2.3,6.3,3.5,11,3.5h29.5V56.1z"
		/>
	<path d="M682.5,32.3c1.6,0,2.9,0.5,4.1,1.5c1.2,1,1.7,2.5,1.7,4.4c0,1.7-0.6,3.1-1.7,4.2c-1.2,1.2-2.5,1.7-4.1,1.7
		c-1.5,0-2.9-0.6-4.2-1.7c-1.3-1.2-1.9-2.6-1.9-4.2c0-1.9,0.6-3.4,1.9-4.4C679.6,32.8,681,32.3,682.5,32.3 M677.3,50.2h10.5v73.2
		h-10.5V50.2z"/>
	<path d="M760.8,45.6c2.9,0,5.6,0.6,8.2,1.7c2.6,1.1,4.8,2.6,6.7,4.6c1.9,1.9,3.5,4.2,4.6,6.8c1.2,2.6,1.7,5.4,1.7,8.2v26
		c0,4.2-0.8,8.2-2.5,11.8c-1.7,3.7-3.9,6.9-6.6,9.6c-2.8,2.7-6,4.9-9.7,6.5c-3.7,1.6-7.6,2.4-11.8,2.4h-21.3c-2.9,0-5.6-0.6-8.2-1.7
		c-2.6-1.1-4.8-2.6-6.7-4.5c-1.9-1.9-3.4-4.1-4.5-6.7c-1.1-2.6-1.7-5.3-1.7-8.2V76.1c0-4.2,0.8-8.2,2.4-11.9c1.6-3.7,3.8-7,6.5-9.7
		c2.7-2.8,5.9-4.9,9.6-6.5c3.7-1.6,7.6-2.4,11.7-2.4H760.8z M771.5,66.9c0-3-1-5.5-3.1-7.6c-2.1-2.1-4.6-3.2-7.6-3.2h-21.5
		c-2.7,0-5.3,0.5-7.7,1.6c-2.4,1.1-4.5,2.5-6.3,4.3c-1.8,1.8-3.2,3.9-4.2,6.3c-1,2.4-1.6,5-1.6,7.8v26.2c0,1.4,0.3,2.8,0.8,4
		c0.5,1.3,1.3,2.4,2.2,3.3c0.9,1,2.1,1.7,3.3,2.3c1.3,0.6,2.7,0.9,4.2,0.9h21.3c2.7,0,5.3-0.5,7.8-1.6c2.4-1,4.5-2.4,6.3-4.2
		c1.8-1.8,3.2-3.9,4.3-6.3c1.1-2.4,1.6-5,1.6-7.8V66.9z"/>
</g>
</svg>
