<svg width="36" height="40" viewBox="0 0 36 40" fill="none" xmlns="http://www.w3.org/2000/svg">
<g clip-path="url(#clip0_111_1756)">
<path d="M8.2799 19.31L7.2799 18.81C7.0399 18.7 6.8999 18.46 6.8999 18.2V15.6C6.8999 15.34 7.0499 15.1 7.2799 14.98L8.2799 14.48V19.31Z" fill="#707487"/>
<path d="M24.14 28.2802V23.4502H11.72V28.2802L17.93 33.7902L24.14 28.2802Z" fill="#E6AF78"/>
<path d="M33.73 30.5302L25.2 28.5202C25.07 28.4902 24.95 28.4402 24.84 28.3802L17.93 32.4102L11.29 28.1802C11.12 28.3402 10.9 28.4602 10.66 28.5202L2.13 30.5302C0.88 30.8302 0 31.9402 0 33.2202V38.6202C0 39.3802 0.62 40.0002 1.38 40.0002H34.48C35.24 40.0002 35.86 39.3802 35.86 38.6202V33.2202C35.86 31.9402 34.98 30.8302 33.73 30.5302Z" fill="#B4E1FA"/>
<path d="M11.72 23.4502V28.5402C19.54 31.3602 24.13 24.3102 24.13 24.3102V23.4502H11.72Z" fill="#D29B6E"/>
<path d="M8.96997 7.58984L9.56997 20.8098C9.62997 22.0498 10.23 23.1898 11.22 23.9298L14.07 26.0698C14.79 26.6098 15.66 26.8998 16.55 26.8998H19.31C20.21 26.8998 21.08 26.6098 21.79 26.0698L24.64 23.9298C25.63 23.1898 26.23 22.0398 26.29 20.8098L26.89 7.58984C26.9 7.58984 8.96997 7.58984 8.96997 7.58984Z" fill="#F0C087"/>
<path d="M15.86 10.3498C18.62 10.3498 22.76 9.65984 23.74 7.58984H8.96997L9.56997 20.8098C9.62997 22.0498 10.23 23.1898 11.22 23.9298L14.07 26.0698C14.79 26.6098 15.66 26.8998 16.55 26.8998H17.93C16.55 26.8998 13.79 24.1398 13.79 20.6898C13.79 18.9998 13.79 14.4798 13.79 12.4098C13.79 11.7298 14.48 10.3498 15.86 10.3498Z" fill="#E6AF78"/>
<path d="M5.06 35.5198L0.59 31.5098C0.22 31.9798 0 32.5798 0 33.2198V38.6198C0 39.3798 0.62 39.9998 1.38 39.9998H6.21V38.0898C6.21 37.1098 5.79 36.1798 5.06 35.5198Z" fill="#A0D2F0"/>
<path d="M30.7999 35.5198L35.2699 31.5098C35.6399 31.9798 35.8599 32.5798 35.8599 33.2198V38.6198C35.8599 39.3798 35.2399 39.9998 34.4799 39.9998H29.6499V38.0898C29.6499 37.1098 30.0699 36.1798 30.7999 35.5198Z" fill="#A0D2F0"/>
<path d="M19.65 40H16.21L16.64 33.79H19.22L19.65 40Z" fill="#5B5D6E"/>
<path d="M19.65 32.4102H16.2V33.7102C16.2 34.1402 16.5499 34.4802 16.9699 34.4802H18.8799C19.3099 34.4802 19.65 34.1302 19.65 33.7102V32.4102Z" fill="#515262"/>
<path d="M11.6299 26.7399L17.9299 32.4099C17.9299 32.4099 16.1599 33.2999 13.9899 35.0999C13.5399 35.4699 12.8599 35.3199 12.6199 34.7899L9.65991 28.2699L10.5999 26.8599C10.8199 26.5199 11.3099 26.4599 11.6299 26.7399Z" fill="#A0D2F0"/>
<path d="M24.2299 26.7399L17.9299 32.4099C17.9299 32.4099 19.6999 33.2999 21.8699 35.0999C22.3199 35.4699 22.9999 35.3199 23.2399 34.7899L26.1999 28.2699L25.2599 26.8599C25.0399 26.5199 24.5499 26.4599 24.2299 26.7399Z" fill="#A0D2F0"/>
<path d="M22.1101 3.02001L22.7601 7.59001C25.7101 8.18001 26.1401 12.81 26.2001 14.13C26.2101 14.37 26.2901 14.6 26.4201 14.8L27.5501 16.55C27.5501 16.55 27.1601 13.66 28.9301 11.72C28.9201 11.73 29.5201 0.260012 22.1101 3.02001Z" fill="#785550"/>
<path d="M9.62992 1.78012L10.6499 2.48012C6.03992 5.88012 6.89992 11.7301 6.89992 11.7301C8.27992 13.1101 8.27992 16.5601 8.27992 16.5601L9.65992 15.1801C9.65992 15.1801 9.12992 11.2001 11.7299 9.66012C14.1399 8.24012 16.2599 8.97012 18.4099 8.97012C24.1899 8.97012 25.7999 6.79012 25.5199 4.14012C25.3699 2.77012 23.2699 -0.0898778 17.9299 0.000122235C15.7699 0.0401222 11.7199 0.690122 9.62992 1.78012Z" fill="#694B4B"/>
<path d="M9.21991 8.35998C9.21991 8.35998 8.48991 5.46998 10.6399 2.47998C6.02991 5.87998 6.88991 11.73 6.88991 11.73C8.26991 13.11 8.26991 16.56 8.26991 16.56L9.64991 15.18C9.64991 15.18 9.11991 11.2 11.7199 9.65998C14.1299 8.23998 16.2499 8.96998 18.3999 8.96998C19.3399 8.96998 20.1599 8.90998 20.8899 8.79998C16.4399 8.94998 13.8199 5.57998 9.21991 8.35998Z" fill="#5A4146"/>
<path d="M9.31009 20H8.28009C7.90009 20 7.59009 19.69 7.59009 19.31V14.48C7.59009 14.1 7.90009 13.79 8.28009 13.79H9.31009C9.50009 13.79 9.65009 13.94 9.65009 14.13V19.65C9.65009 19.85 9.50009 20 9.31009 20Z" fill="#5B5D6E"/>
<path d="M20.6899 23.9698V22.9398C25.3599 22.9398 26.3799 20.3298 26.3799 19.3198H27.4099C27.4099 20.6098 26.1999 23.9698 20.6899 23.9698Z" fill="#464655"/>
<path d="M20.6901 24.1398H20.0001C19.6201 24.1398 19.3101 23.8298 19.3101 23.4498C19.3101 23.0698 19.6201 22.7598 20.0001 22.7598H20.6901C21.0701 22.7598 21.3801 23.0698 21.3801 23.4498C21.3801 23.8298 21.0701 24.1398 20.6901 24.1398Z" fill="#5B5D6E"/>
<path d="M27.5801 19.3102L28.5801 18.8102C28.8101 18.6902 28.9601 18.4502 28.9601 18.1902V15.5902C28.9601 15.3302 28.8101 15.0902 28.5801 14.9702L27.5801 14.4702V19.3102Z" fill="#707487"/>
<path d="M26.55 20H27.58C27.96 20 28.27 19.69 28.27 19.31V14.48C28.27 14.1 27.96 13.79 27.58 13.79H26.55C26.36 13.79 26.21 13.94 26.21 14.13V19.65C26.21 19.85 26.36 20 26.55 20Z" fill="#5B5D6E"/>
<path d="M26.8999 38.6201H22.0699C21.6899 38.6201 21.3799 38.9301 21.3799 39.3101V40.0001H27.5899V39.3101C27.5799 38.9301 27.2799 38.6201 26.8999 38.6201Z" fill="#A0D2F0"/>
</g>
<defs>
<clipPath id="clip0_111_1756">
<rect width="35.86" height="40" fill="white"/>
</clipPath>
</defs>
</svg>
