<svg width="47" height="40" viewBox="0 0 47 40" fill="none" xmlns="http://www.w3.org/2000/svg">
<g clip-path="url(#clip0_111_1811)">
<path d="M28 11.2002H37.22C38.81 11.2002 40.16 12.3702 40.39 13.9502L41.6 22.4002H43.2C44.97 22.4002 46.4 23.8302 46.4 25.6002V33.6002C46.4 34.4802 45.68 35.2002 44.8 35.2002H28V11.2002Z" fill="url(#paint0_linear_111_1811)"/>
<path d="M32 11.2002V20.8002C32 21.6802 32.72 22.4002 33.6 22.4002H41.6L40.39 13.9502C40.16 12.3702 38.81 11.2002 37.22 11.2002H32Z" fill="url(#paint1_linear_111_1811)"/>
<path d="M44.8 32.7998H46.4V33.5998C46.4 34.4798 45.68 35.1998 44.8 35.1998H44V33.5998C44 33.1598 44.36 32.7998 44.8 32.7998Z" fill="url(#paint2_linear_111_1811)"/>
<path d="M3.2 6.3999H25.6C27.37 6.3999 28.8 7.8299 28.8 9.5999V35.1999H3.2C1.43 35.1999 0 33.7699 0 31.9999V9.5999C0 7.8299 1.43 6.3999 3.2 6.3999Z" fill="url(#paint3_linear_111_1811)"/>
<path d="M9.60005 39.9999C12.251 39.9999 14.4 37.8509 14.4 35.1999C14.4 32.5489 12.251 30.3999 9.60005 30.3999C6.94908 30.3999 4.80005 32.5489 4.80005 35.1999C4.80005 37.8509 6.94908 39.9999 9.60005 39.9999Z" fill="url(#paint4_linear_111_1811)"/>
<path d="M9.59995 37.5998C10.9254 37.5998 12 36.5253 12 35.1998C12 33.8743 10.9254 32.7998 9.59995 32.7998C8.27447 32.7998 7.19995 33.8743 7.19995 35.1998C7.19995 36.5253 8.27447 37.5998 9.59995 37.5998Z" fill="url(#paint5_linear_111_1811)"/>
<path d="M36.8 39.9999C39.451 39.9999 41.6 37.8509 41.6 35.1999C41.6 32.5489 39.451 30.3999 36.8 30.3999C34.149 30.3999 32 32.5489 32 35.1999C32 37.8509 34.149 39.9999 36.8 39.9999Z" fill="url(#paint6_linear_111_1811)"/>
<path d="M36.7999 37.5998C38.1254 37.5998 39.1999 36.5253 39.1999 35.1998C39.1999 33.8743 38.1254 32.7998 36.7999 32.7998C35.4744 32.7998 34.3999 33.8743 34.3999 35.1998C34.3999 36.5253 35.4744 37.5998 36.7999 37.5998Z" fill="url(#paint7_linear_111_1811)"/>
<path d="M9.6 19.2C14.9019 19.2 19.2 14.9019 19.2 9.6C19.2 4.29807 14.9019 0 9.6 0C4.29807 0 0 4.29807 0 9.6C0 14.9019 4.29807 19.2 9.6 19.2Z" fill="url(#paint8_linear_111_1811)"/>
<path d="M9.6001 17.6001C14.0184 17.6001 17.6001 14.0184 17.6001 9.6001C17.6001 5.18182 14.0184 1.6001 9.6001 1.6001C5.18182 1.6001 1.6001 5.18182 1.6001 9.6001C1.6001 14.0184 5.18182 17.6001 9.6001 17.6001Z" fill="url(#paint9_linear_111_1811)"/>
<path d="M12.8 13.5999C12.59 13.5999 12.38 13.5199 12.23 13.3699L9.03005 10.1699C8.88005 10.0199 8.80005 9.8099 8.80005 9.5999V3.1999C8.80005 2.7599 9.16005 2.3999 9.60005 2.3999C10.04 2.3999 10.4 2.7599 10.4 3.1999V9.2699L13.37 12.2399C13.68 12.5499 13.68 13.0599 13.37 13.3699C13.22 13.5199 13.01 13.5999 12.8 13.5999Z" fill="url(#paint10_linear_111_1811)"/>
<path d="M33.62 27.9999H32.02C31.58 27.9999 31.22 27.6399 31.22 27.1999C31.22 26.7599 31.58 26.3999 32.02 26.3999H33.62C34.06 26.3999 34.42 26.7599 34.42 27.1999C34.42 27.6399 34.06 27.9999 33.62 27.9999Z" fill="url(#paint11_linear_111_1811)"/>
<path d="M0.0200195 26.3999H28.82V27.9999H0.0200195V26.3999Z" fill="url(#paint12_linear_111_1811)"/>
</g>
<defs>
<linearGradient id="paint0_linear_111_1811" x1="37.2" y1="11.2002" x2="37.2" y2="35.2002" gradientUnits="userSpaceOnUse">
<stop stop-color="#7F7F99"/>
<stop offset="1" stop-color="#515072"/>
</linearGradient>
<linearGradient id="paint1_linear_111_1811" x1="36.8" y1="11.2002" x2="36.8" y2="22.4002" gradientUnits="userSpaceOnUse">
<stop stop-color="#9EBFF5"/>
<stop offset="1" stop-color="#6F98E7"/>
</linearGradient>
<linearGradient id="paint2_linear_111_1811" x1="45.2" y1="32.7998" x2="45.2" y2="35.1998" gradientUnits="userSpaceOnUse">
<stop stop-color="#E4E9F4"/>
<stop offset="1" stop-color="#BCCBE2"/>
</linearGradient>
<linearGradient id="paint3_linear_111_1811" x1="14.4" y1="6.3999" x2="14.4" y2="35.1999" gradientUnits="userSpaceOnUse">
<stop stop-color="#FFD270"/>
<stop offset="1" stop-color="#F79F63"/>
</linearGradient>
<linearGradient id="paint4_linear_111_1811" x1="9.60005" y1="30.3999" x2="9.60005" y2="39.9999" gradientUnits="userSpaceOnUse">
<stop stop-color="#7F7F99"/>
<stop offset="1" stop-color="#515072"/>
</linearGradient>
<linearGradient id="paint5_linear_111_1811" x1="9.59995" y1="32.7998" x2="9.59995" y2="37.5998" gradientUnits="userSpaceOnUse">
<stop stop-color="#E4E9F4"/>
<stop offset="1" stop-color="#BCCBE2"/>
</linearGradient>
<linearGradient id="paint6_linear_111_1811" x1="36.8" y1="30.3999" x2="36.8" y2="39.9999" gradientUnits="userSpaceOnUse">
<stop stop-color="#7F7F99"/>
<stop offset="1" stop-color="#515072"/>
</linearGradient>
<linearGradient id="paint7_linear_111_1811" x1="36.7999" y1="32.7998" x2="36.7999" y2="37.5998" gradientUnits="userSpaceOnUse">
<stop stop-color="#E4E9F4"/>
<stop offset="1" stop-color="#BCCBE2"/>
</linearGradient>
<linearGradient id="paint8_linear_111_1811" x1="9.6" y1="0" x2="9.6" y2="19.2" gradientUnits="userSpaceOnUse">
<stop stop-color="#7F7F99"/>
<stop offset="1" stop-color="#515072"/>
</linearGradient>
<linearGradient id="paint9_linear_111_1811" x1="9.6001" y1="1.6001" x2="9.6001" y2="17.6001" gradientUnits="userSpaceOnUse">
<stop stop-color="#E4E9F4"/>
<stop offset="1" stop-color="#BCCBE2"/>
</linearGradient>
<linearGradient id="paint10_linear_111_1811" x1="11.2" y1="2.3999" x2="11.2" y2="13.5999" gradientUnits="userSpaceOnUse">
<stop stop-color="#7F7F99"/>
<stop offset="1" stop-color="#515072"/>
</linearGradient>
<linearGradient id="paint11_linear_111_1811" x1="32.816" y1="26.3999" x2="32.816" y2="31.0127" gradientUnits="userSpaceOnUse">
<stop stop-color="#7F7F99"/>
<stop offset="1" stop-color="#515072"/>
</linearGradient>
<linearGradient id="paint12_linear_111_1811" x1="14.416" y1="26.3999" x2="14.416" y2="27.9999" gradientUnits="userSpaceOnUse">
<stop stop-color="#FFD270"/>
<stop offset="1" stop-color="#F79F63"/>
</linearGradient>
<clipPath id="clip0_111_1811">
<rect width="46.4" height="40" fill="white"/>
</clipPath>
</defs>
</svg>
